<svg version="1.1" xmlns="http://www.w3.org/2000/svg" viewBox="0 0 1660 1840" width="1660" height="1840">
  <!-- svg-source:excalidraw -->
  
  <defs>
    <style class="style-fonts">
      @font-face {
        font-family: "Virgil";
        src: url("https://excalidraw.com/Virgil.woff2");
      }
      @font-face {
        font-family: "Cascadia";
        src: url("https://excalidraw.com/Cascadia.woff2");
      }
      @font-face {
        font-family: "Assistant";
        src: url("https://excalidraw.com/Assistant-Regular.woff2");
      }
    </style>
    
  </defs>
  <rect x="0" y="0" width="1660" height="1840" fill="#ffffff"></rect><g stroke-linecap="round" transform="translate(10 10) rotate(0 820 910)"><path d="M32 0 C423.47 0, 814.95 0, 1608 0 C1629.33 0, 1640 10.67, 1640 32 C1640 547.68, 1640 1063.35, 1640 1788 C1640 1809.33, 1629.33 1820, 1608 1820 C1012.79 1820, 417.58 1820, 32 1820 C10.67 1820, 0 1809.33, 0 1788 C0 1327.72, 0 867.45, 0 32 C0 10.67, 10.67 0, 32 0" stroke="none" stroke-width="0" fill="#e3fafc"></path><path d="M32 0 C580.94 0, 1129.88 0, 1608 0 M1608 0 C1629.33 0, 1640 10.67, 1640 32 M1640 32 C1640 719.12, 1640 1406.24, 1640 1788 M1640 1788 C1640 1809.33, 1629.33 1820, 1608 1820 M1608 1820 C1067.31 1820, 526.62 1820, 32 1820 M32 1820 C10.67 1820, 0 1809.33, 0 1788 M0 1788 C0 1418.42, 0 1048.85, 0 32 M0 32 C0 10.67, 10.67 0, 32 0" stroke="#1971c2" stroke-width="4.5" fill="none" stroke-dasharray="1.5 10"></path></g><g stroke-linecap="round"><g transform="translate(1159.3033854166679 685.772162438373) rotate(0 192.26239624281743 189.746161619355)" fill-rule="evenodd"><path d="M0 0 L377.66 1.33 L384.52 317.13 L321.35 376.84 L4.12 379.49 L0 0" stroke="none" stroke-width="0" fill="#fab005" fill-rule="evenodd"></path><path d="M0 0 C128.59 0.45, 257.17 0.9, 377.66 1.33 M0 0 C142.97 0.5, 285.95 1, 377.66 1.33 M377.66 1.33 C379.62 91.51, 381.58 181.68, 384.52 317.13 M377.66 1.33 C379.6 90.61, 381.54 179.89, 384.52 317.13 M384.52 317.13 C360.2 340.12, 335.87 363.12, 321.35 376.84 M384.52 317.13 C362.45 337.99, 340.37 358.86, 321.35 376.84 M321.35 376.84 C211.01 377.76, 100.67 378.68, 4.12 379.49 M321.35 376.84 C212.96 377.75, 104.57 378.65, 4.12 379.49 M4.12 379.49 C3.27 301.43, 2.43 223.37, 0 0 M4.12 379.49 C2.87 264.2, 1.62 148.91, 0 0 M0 0 C0 0, 0 0, 0 0 M0 0 C0 0, 0 0, 0 0" stroke="#000000" stroke-width="1" fill="none"></path></g></g><mask></mask><g stroke-linecap="round"><g transform="translate(1543.2275308250573 1004.2109862939919) rotate(0 -32.84333921536563 25.769389230516936)" fill-rule="evenodd"><path d="M0 0 L-61.64 -9.1 L-65.69 60.63 L0 0" stroke="none" stroke-width="0" fill="white" fill-rule="evenodd"></path><path d="M0 0 C-18.63 -2.75, -37.26 -5.5, -61.64 -9.1 M0 0 C-14.26 -2.1, -28.52 -4.21, -61.64 -9.1 M-61.64 -9.1 C-62.46 4.98, -63.28 19.06, -65.69 60.63 M-61.64 -9.1 C-63.02 14.62, -64.39 38.34, -65.69 60.63 M-65.69 60.63 C-40.61 37.48, -15.52 14.33, 0 0 M-65.69 60.63 C-46.46 42.89, -27.23 25.14, 0 0 M0 0 C0 0, 0 0, 0 0 M0 0 C0 0, 0 0, 0 0" stroke="#343a40" stroke-width="1" fill="none"></path></g></g><mask></mask><g stroke-linecap="round" transform="translate(1179.3033854166679 1185.2644856770835) rotate(0 200 30)"><path d="M0 0 L400 0 L400 60 L0 60" stroke="none" stroke-width="0" fill="#f8f9fa"></path><path d="M0 0 C148.16 0, 296.32 0, 400 0 M0 0 C157.85 0, 315.7 0, 400 0 M400 0 C400 20.51, 400 41.02, 400 60 M400 0 C400 12.9, 400 25.79, 400 60 M400 60 C279.87 60, 159.74 60, 0 60 M400 60 C296.48 60, 192.95 60, 0 60 M0 60 C0 45.16, 0 30.32, 0 0 M0 60 C0 38.28, 0 16.57, 0 0" stroke="#1e1e1e" stroke-width="2" fill="none"></path></g><g stroke-linecap="round" transform="translate(1219.3033854166679 1265.2644856770835) rotate(0 160 30)"><path d="M0 0 L320 0 L320 60 L0 60" stroke="none" stroke-width="0" fill="#f8f9fa"></path><path d="M0 0 C73.81 0, 147.62 0, 320 0 M0 0 C77.94 0, 155.88 0, 320 0 M320 0 C320 23.06, 320 46.13, 320 60 M320 0 C320 13.3, 320 26.6, 320 60 M320 60 C248.9 60, 177.8 60, 0 60 M320 60 C210.39 60, 100.77 60, 0 60 M0 60 C0 39.57, 0 19.15, 0 0 M0 60 C0 38.71, 0 17.42, 0 0" stroke="#1e1e1e" stroke-width="2" fill="none"></path></g><g stroke-linecap="round" transform="translate(239.30338541666788 185.26448567708348) rotate(0 399.9999999999998 130)"><path d="M0 0 L800 0 L800 260 L0 260" stroke="none" stroke-width="0" fill="#f8f9fa"></path><path d="M0 0 C265.99 0, 531.98 0, 800 0 M800 0 C800 89.48, 800 178.95, 800 260 M800 260 C489.74 260, 179.47 260, 0 260 M0 260 C0 207.91, 0 155.83, 0 0" stroke="#1e1e1e" stroke-width="4.5" fill="none" stroke-dasharray="8 12"></path></g><g stroke-linecap="round" transform="translate(90 610) rotate(0 480 570)"><path d="M0 0 L960 0 L960 1140 L0 1140" stroke="none" stroke-width="0" fill="#f8f9fa"></path><path d="M0 0 C238.57 0, 477.14 0, 960 0 M960 0 C960 392.06, 960 784.13, 960 1140 M960 1140 C720.65 1140, 481.29 1140, 0 1140 M0 1140 C0 790.34, 0 440.69, 0 0" stroke="#1e1e1e" stroke-width="4.5" fill="none" stroke-dasharray="8 12"></path></g><g stroke-linecap="round" transform="translate(1119.303385416667 1485.2644856770835) rotate(0 120 90)"><path d="M0 0 L240 0 L240 180 L0 180" stroke="none" stroke-width="0" fill="#a5d8ff"></path><path d="M0 0 C80.12 0, 160.25 0, 240 0 M0 0 C87.02 0, 174.05 0, 240 0 M240 0 C240 47.55, 240 95.09, 240 180 M240 0 C240 54.58, 240 109.16, 240 180 M240 180 C166.68 180, 93.36 180, 0 180 M240 180 C171.24 180, 102.48 180, 0 180 M0 180 C0 138.15, 0 96.3, 0 0 M0 180 C0 124.86, 0 69.72, 0 0" stroke="#1971c2" stroke-width="2" fill="none"></path></g><g transform="translate(1189.4631754557295 1540.2644856770835) rotate(0 49.8402099609375 35)"><text x="49.8402099609375" y="24.528" font-family="Virgil, Segoe UI Emoji" font-size="28px" fill="#1e1e1e" text-anchor="middle" style="white-space: pre;" direction="ltr" dominant-baseline="alphabetic">Equinix</text><text x="49.8402099609375" y="59.528" font-family="Virgil, Segoe UI Emoji" font-size="28px" fill="#1e1e1e" text-anchor="middle" style="white-space: pre;" direction="ltr" dominant-baseline="alphabetic">Cluster</text></g><g stroke-linecap="round" transform="translate(519.3033854166679 285.2644856770835) rotate(0 100 50)"><path d="M0 0 L200 0 L200 100 L0 100" stroke="none" stroke-width="0" fill="#a5d8ff"></path><path d="M0 0 C57.11 0, 114.22 0, 200 0 M0 0 C56.54 0, 113.08 0, 200 0 M200 0 C200 38.51, 200 77.02, 200 100 M200 0 C200 34.95, 200 69.89, 200 100 M200 100 C130.43 100, 60.87 100, 0 100 M200 100 C131.67 100, 63.33 100, 0 100 M0 100 C0 79.43, 0 58.86, 0 0 M0 100 C0 69.62, 0 39.24, 0 0" stroke="#1e1e1e" stroke-width="2" fill="none"></path></g><g transform="translate(566.4034372965507 322.7644856770835) rotate(0 52.89994812011719 12.5)"><text x="52.89994812011719" y="17.52" font-family="Virgil, Segoe UI Emoji" font-size="20px" fill="#1e1e1e" text-anchor="middle" style="white-space: pre;" direction="ltr" dominant-baseline="alphabetic">Project[2]</text></g><g stroke-linecap="round" transform="translate(299.3033854166679 285.2644856770835) rotate(0 100 50)"><path d="M0 0 L200 0 L200 100 L0 100" stroke="none" stroke-width="0" fill="#a5d8ff"></path><path d="M0 0 C40.38 0, 80.76 0, 200 0 M0 0 C68.03 0, 136.07 0, 200 0 M200 0 C200 38.18, 200 76.37, 200 100 M200 0 C200 29.27, 200 58.54, 200 100 M200 100 C137.14 100, 74.27 100, 0 100 M200 100 C140.78 100, 81.57 100, 0 100 M0 100 C0 74.57, 0 49.15, 0 0 M0 100 C0 77.05, 0 54.09, 0 0" stroke="#1e1e1e" stroke-width="2" fill="none"></path></g><g transform="translate(373.7034098307304 322.7644856770835) rotate(0 25.5999755859375 12.5)"><text x="25.5999755859375" y="17.52" font-family="Virgil, Segoe UI Emoji" font-size="20px" fill="#1e1e1e" text-anchor="middle" style="white-space: pre;" direction="ltr" dominant-baseline="alphabetic">Falco</text></g><g stroke-linecap="round" transform="translate(779.3033854166679 285.2644856770835) rotate(0 100 50)"><path d="M0 0 L200 0 L200 100 L0 100" stroke="none" stroke-width="0" fill="#a5d8ff"></path><path d="M0 0 C68.37 0, 136.75 0, 200 0 M0 0 C42.99 0, 85.98 0, 200 0 M200 0 C200 30.03, 200 60.07, 200 100 M200 0 C200 25.88, 200 51.76, 200 100 M200 100 C150.54 100, 101.07 100, 0 100 M200 100 C127.62 100, 55.23 100, 0 100 M0 100 C0 67.37, 0 34.75, 0 0 M0 100 C0 67.72, 0 35.44, 0 0" stroke="#1e1e1e" stroke-width="2" fill="none"></path></g><g transform="translate(827.0834376017265 322.7644856770835) rotate(0 52.219947814941406 12.5)"><text x="52.219947814941406" y="17.52" font-family="Virgil, Segoe UI Emoji" font-size="20px" fill="#1e1e1e" text-anchor="middle" style="white-space: pre;" direction="ltr" dominant-baseline="alphabetic">Project[N]</text></g><g transform="translate(519.3033854166679 205.26448567708348) rotate(0 99.9044189453125 17.5)"><text x="0" y="24.528" font-family="Virgil, Segoe UI Emoji" font-size="28px" fill="#1e1e1e" text-anchor="start" style="white-space: pre;" direction="ltr" dominant-baseline="alphabetic">CNCF Projects</text></g><g transform="translate(407.23475138346475 625.2644856770835) rotate(0 152.06863403320312 17.5)"><text x="0" y="24.528" font-family="Virgil, Segoe UI Emoji" font-size="28px" fill="#1e1e1e" text-anchor="start" style="white-space: pre;" direction="ltr" dominant-baseline="alphabetic">Green Reviews Pipeline</text></g><g transform="translate(730.3295561809709 332.84770156031345) rotate(0 0.00005000000010113581 0.00005000000010113581)" stroke="none"><path fill="#1e1e1e" d="M 3.14,-3.14 Q 3.14,-3.14 3.55,-2.55 3.97,-1.97 4.18,-1.28 4.40,-0.59 4.38,0.11 4.36,0.83 4.11,1.51 3.86,2.18 3.41,2.74 2.96,3.30 2.36,3.69 1.75,4.07 1.05,4.25 0.36,4.42 -0.35,4.36 -1.07,4.30 -1.73,4.02 -2.39,3.74 -2.92,3.26 -3.46,2.78 -3.81,2.15 -4.16,1.53 -4.30,0.82 -4.43,0.11 -4.34,-0.59 -4.24,-1.30 -3.92,-1.94 -3.60,-2.59 -3.09,-3.09 -2.59,-3.60 -1.94,-3.92 -1.30,-4.24 -0.59,-4.34 0.12,-4.43 0.82,-4.30 1.53,-4.16 2.15,-3.81 2.78,-3.46 3.26,-2.92 3.74,-2.39 4.02,-1.73 4.31,-1.07 4.36,-0.35 4.42,0.36 4.25,1.05 4.07,1.75 3.69,2.36 3.30,2.96 2.74,3.41 2.18,3.86 1.51,4.11 0.83,4.36 0.11,4.38 -0.60,4.40 -1.28,4.18 -1.97,3.97 -2.55,3.55 -3.14,3.13 -3.14,3.14 -3.14,3.14 -3.47,2.71 -3.80,2.29 -4.02,1.80 -4.24,1.32 -4.33,0.79 -4.43,0.26 -4.40,-0.26 -4.36,-0.80 -4.20,-1.31 -4.04,-1.82 -3.77,-2.28 -3.49,-2.73 -3.11,-3.11 -2.73,-3.49 -2.28,-3.77 -1.82,-4.05 -1.31,-4.20 -0.80,-4.36 -0.26,-4.40 0.26,-4.43 0.79,-4.33 1.32,-4.24 1.80,-4.02 2.29,-3.80 2.71,-3.47 3.14,-3.14 3.14,-3.14 L 3.14,-3.14 Z"></path></g><g transform="translate(700.3295561809709 1202.8477015603135) rotate(0 0.00005000000010113581 0.00005000000010113581)" stroke="none"><path fill="#1e1e1e" d="M 3.14,-3.14 Q 3.14,-3.14 3.55,-2.55 3.97,-1.97 4.18,-1.28 4.40,-0.59 4.38,0.11 4.36,0.83 4.11,1.51 3.86,2.18 3.41,2.74 2.96,3.30 2.36,3.69 1.75,4.07 1.05,4.25 0.36,4.42 -0.35,4.36 -1.07,4.30 -1.73,4.02 -2.39,3.74 -2.92,3.26 -3.46,2.78 -3.81,2.15 -4.16,1.53 -4.30,0.82 -4.43,0.11 -4.34,-0.59 -4.24,-1.30 -3.92,-1.94 -3.60,-2.59 -3.09,-3.09 -2.59,-3.60 -1.94,-3.92 -1.30,-4.24 -0.59,-4.34 0.12,-4.43 0.82,-4.30 1.53,-4.16 2.15,-3.81 2.78,-3.46 3.26,-2.92 3.74,-2.39 4.02,-1.73 4.31,-1.07 4.36,-0.35 4.42,0.36 4.25,1.05 4.07,1.75 3.69,2.36 3.30,2.96 2.74,3.41 2.18,3.86 1.51,4.11 0.83,4.36 0.11,4.38 -0.60,4.40 -1.28,4.18 -1.97,3.97 -2.55,3.55 -3.14,3.13 -3.14,3.14 -3.14,3.14 -3.47,2.71 -3.80,2.29 -4.02,1.80 -4.24,1.32 -4.33,0.79 -4.43,0.26 -4.40,-0.26 -4.36,-0.80 -4.20,-1.31 -4.04,-1.82 -3.77,-2.28 -3.49,-2.73 -3.11,-3.11 -2.73,-3.49 -2.28,-3.77 -1.82,-4.05 -1.31,-4.20 -0.80,-4.36 -0.26,-4.40 0.26,-4.43 0.79,-4.33 1.32,-4.24 1.80,-4.02 2.29,-3.80 2.71,-3.47 3.14,-3.14 3.14,-3.14 L 3.14,-3.14 Z"></path></g><g transform="translate(747.0527312297991 332.84770156031345) rotate(0 0.00005000000010113581 0.00005000000010113581)" stroke="none"><path fill="#1e1e1e" d="M 3.14,-3.14 Q 3.14,-3.14 3.55,-2.55 3.97,-1.97 4.18,-1.28 4.40,-0.59 4.38,0.11 4.36,0.83 4.11,1.51 3.86,2.18 3.41,2.74 2.96,3.30 2.36,3.69 1.75,4.07 1.05,4.25 0.36,4.42 -0.35,4.36 -1.07,4.30 -1.73,4.02 -2.39,3.74 -2.92,3.26 -3.46,2.78 -3.81,2.15 -4.16,1.53 -4.30,0.82 -4.43,0.11 -4.34,-0.59 -4.24,-1.30 -3.92,-1.94 -3.60,-2.59 -3.09,-3.09 -2.59,-3.60 -1.94,-3.92 -1.30,-4.24 -0.59,-4.34 0.12,-4.43 0.82,-4.30 1.53,-4.16 2.15,-3.81 2.78,-3.46 3.26,-2.92 3.74,-2.39 4.02,-1.73 4.31,-1.07 4.36,-0.35 4.42,0.36 4.25,1.05 4.07,1.75 3.69,2.36 3.30,2.96 2.74,3.41 2.18,3.86 1.51,4.11 0.83,4.36 0.11,4.38 -0.60,4.40 -1.28,4.18 -1.97,3.97 -2.55,3.55 -3.14,3.13 -3.14,3.14 -3.14,3.14 -3.47,2.71 -3.80,2.29 -4.02,1.80 -4.24,1.32 -4.33,0.79 -4.43,0.26 -4.40,-0.26 -4.36,-0.80 -4.20,-1.31 -4.04,-1.82 -3.77,-2.28 -3.49,-2.73 -3.11,-3.11 -2.73,-3.49 -2.28,-3.77 -1.82,-4.05 -1.31,-4.20 -0.80,-4.36 -0.26,-4.40 0.26,-4.43 0.79,-4.33 1.32,-4.24 1.80,-4.02 2.29,-3.80 2.71,-3.47 3.14,-3.14 3.14,-3.14 L 3.14,-3.14 Z"></path></g><g transform="translate(717.0527312297991 1202.8477015603135) rotate(0 0.00005000000010113581 0.00005000000010113581)" stroke="none"><path fill="#1e1e1e" d="M 3.14,-3.14 Q 3.14,-3.14 3.55,-2.55 3.97,-1.97 4.18,-1.28 4.40,-0.59 4.38,0.11 4.36,0.83 4.11,1.51 3.86,2.18 3.41,2.74 2.96,3.30 2.36,3.69 1.75,4.07 1.05,4.25 0.36,4.42 -0.35,4.36 -1.07,4.30 -1.73,4.02 -2.39,3.74 -2.92,3.26 -3.46,2.78 -3.81,2.15 -4.16,1.53 -4.30,0.82 -4.43,0.11 -4.34,-0.59 -4.24,-1.30 -3.92,-1.94 -3.60,-2.59 -3.09,-3.09 -2.59,-3.60 -1.94,-3.92 -1.30,-4.24 -0.59,-4.34 0.12,-4.43 0.82,-4.30 1.53,-4.16 2.15,-3.81 2.78,-3.46 3.26,-2.92 3.74,-2.39 4.02,-1.73 4.31,-1.07 4.36,-0.35 4.42,0.36 4.25,1.05 4.07,1.75 3.69,2.36 3.30,2.96 2.74,3.41 2.18,3.86 1.51,4.11 0.83,4.36 0.11,4.38 -0.60,4.40 -1.28,4.18 -1.97,3.97 -2.55,3.55 -3.14,3.13 -3.14,3.14 -3.14,3.14 -3.47,2.71 -3.80,2.29 -4.02,1.80 -4.24,1.32 -4.33,0.79 -4.43,0.26 -4.40,-0.26 -4.36,-0.80 -4.20,-1.31 -4.04,-1.82 -3.77,-2.28 -3.49,-2.73 -3.11,-3.11 -2.73,-3.49 -2.28,-3.77 -1.82,-4.05 -1.31,-4.20 -0.80,-4.36 -0.26,-4.40 0.26,-4.43 0.79,-4.33 1.32,-4.24 1.80,-4.02 2.29,-3.80 2.71,-3.47 3.14,-3.14 3.14,-3.14 L 3.14,-3.14 Z"></path></g><g transform="translate(763.7759062786272 332.84770156031345) rotate(0 0.00005000000010113581 0.00005000000010113581)" stroke="none"><path fill="#1e1e1e" d="M 3.14,-3.14 Q 3.14,-3.14 3.55,-2.55 3.97,-1.97 4.18,-1.28 4.40,-0.59 4.38,0.11 4.36,0.83 4.11,1.51 3.86,2.18 3.41,2.74 2.96,3.30 2.36,3.69 1.75,4.07 1.05,4.25 0.36,4.42 -0.35,4.36 -1.07,4.30 -1.73,4.02 -2.39,3.74 -2.92,3.26 -3.46,2.78 -3.81,2.15 -4.16,1.53 -4.30,0.82 -4.43,0.11 -4.34,-0.59 -4.24,-1.30 -3.92,-1.94 -3.60,-2.59 -3.09,-3.09 -2.59,-3.60 -1.94,-3.92 -1.30,-4.24 -0.59,-4.34 0.12,-4.43 0.82,-4.30 1.53,-4.16 2.15,-3.81 2.78,-3.46 3.26,-2.92 3.74,-2.39 4.02,-1.73 4.31,-1.07 4.36,-0.35 4.42,0.36 4.25,1.05 4.07,1.75 3.69,2.36 3.30,2.96 2.74,3.41 2.18,3.86 1.51,4.11 0.83,4.36 0.11,4.38 -0.60,4.40 -1.28,4.18 -1.97,3.97 -2.55,3.55 -3.14,3.13 -3.14,3.14 -3.14,3.14 -3.47,2.71 -3.80,2.29 -4.02,1.80 -4.24,1.32 -4.33,0.79 -4.43,0.26 -4.40,-0.26 -4.36,-0.80 -4.20,-1.31 -4.04,-1.82 -3.77,-2.28 -3.49,-2.73 -3.11,-3.11 -2.73,-3.49 -2.28,-3.77 -1.82,-4.05 -1.31,-4.20 -0.80,-4.36 -0.26,-4.40 0.26,-4.43 0.79,-4.33 1.32,-4.24 1.80,-4.02 2.29,-3.80 2.71,-3.47 3.14,-3.14 3.14,-3.14 L 3.14,-3.14 Z"></path></g><g transform="translate(733.7759062786272 1202.8477015603135) rotate(0 0.00005000000010113581 0.00005000000010113581)" stroke="none"><path fill="#1e1e1e" d="M 3.14,-3.14 Q 3.14,-3.14 3.55,-2.55 3.97,-1.97 4.18,-1.28 4.40,-0.59 4.38,0.11 4.36,0.83 4.11,1.51 3.86,2.18 3.41,2.74 2.96,3.30 2.36,3.69 1.75,4.07 1.05,4.25 0.36,4.42 -0.35,4.36 -1.07,4.30 -1.73,4.02 -2.39,3.74 -2.92,3.26 -3.46,2.78 -3.81,2.15 -4.16,1.53 -4.30,0.82 -4.43,0.11 -4.34,-0.59 -4.24,-1.30 -3.92,-1.94 -3.60,-2.59 -3.09,-3.09 -2.59,-3.60 -1.94,-3.92 -1.30,-4.24 -0.59,-4.34 0.12,-4.43 0.82,-4.30 1.53,-4.16 2.15,-3.81 2.78,-3.46 3.26,-2.92 3.74,-2.39 4.02,-1.73 4.31,-1.07 4.36,-0.35 4.42,0.36 4.25,1.05 4.07,1.75 3.69,2.36 3.30,2.96 2.74,3.41 2.18,3.86 1.51,4.11 0.83,4.36 0.11,4.38 -0.60,4.40 -1.28,4.18 -1.97,3.97 -2.55,3.55 -3.14,3.13 -3.14,3.14 -3.14,3.14 -3.47,2.71 -3.80,2.29 -4.02,1.80 -4.24,1.32 -4.33,0.79 -4.43,0.26 -4.40,-0.26 -4.36,-0.80 -4.20,-1.31 -4.04,-1.82 -3.77,-2.28 -3.49,-2.73 -3.11,-3.11 -2.73,-3.49 -2.28,-3.77 -1.82,-4.05 -1.31,-4.20 -0.80,-4.36 -0.26,-4.40 0.26,-4.43 0.79,-4.33 1.32,-4.24 1.80,-4.02 2.29,-3.80 2.71,-3.47 3.14,-3.14 3.14,-3.14 L 3.14,-3.14 Z"></path></g><g stroke-linecap="round" transform="translate(370 790) rotate(0 190 140)"><path d="M0 0 L380 0 L380 280 L0 280" stroke="none" stroke-width="0" fill="#ffec99"></path><path d="M0 0 C123.13 0, 246.27 0, 380 0 M380 0 C380 111.55, 380 223.1, 380 280 M380 280 C266.8 280, 153.59 280, 0 280 M0 280 C0 172.37, 0 64.73, 0 0" stroke="#1e1e1e" stroke-width="2.5" fill="none" stroke-dasharray="8 10"></path></g><g stroke-linecap="round" transform="translate(119.30338541666788 1165.2644856770835) rotate(0 150 222.36775716145826)"><path d="M0 0 L300 0 L300 444.74 L0 444.74" stroke="none" stroke-width="0" fill="#ffec99"></path><path d="M0 0 C71.06 0, 142.13 0, 300 0 M300 0 C300 147.28, 300 294.55, 300 444.74 M300 444.74 C181.79 444.74, 63.58 444.74, 0 444.74 M0 444.74 C0 335.76, 0 226.78, 0 0" stroke="#1e1e1e" stroke-width="2.5" fill="none" stroke-dasharray="8 10"></path></g><g stroke-linecap="round" transform="translate(479.3033854166679 1165.2644856770835) rotate(0 80 132.36775716145826)"><path d="M0 0 L160 0 L160 264.74 L0 264.74" stroke="none" stroke-width="0" fill="#ffec99"></path><path d="M0 0 C48.88 0, 97.76 0, 160 0 M160 0 C160 75.85, 160 151.69, 160 264.74 M160 264.74 C122.8 264.74, 85.6 264.74, 0 264.74 M0 264.74 C0 183.64, 0 102.55, 0 0" stroke="#1e1e1e" stroke-width="2.5" fill="none" stroke-dasharray="8 10"></path></g><g stroke-linecap="round" transform="translate(779.3033854166679 1165.2644856770835) rotate(0 80 130)"><path d="M0 0 L160 0 L160 260 L0 260" stroke="none" stroke-width="0" fill="#ffec99"></path><path d="M0 0 C55.65 0, 111.31 0, 160 0 M160 0 C160 88.83, 160 177.67, 160 260 M160 260 C127.09 260, 94.18 260, 0 260 M0 260 C0 181.01, 0 102.03, 0 0" stroke="#1e1e1e" stroke-width="2.5" fill="none" stroke-dasharray="8 10"></path></g><g stroke-linecap="round" transform="translate(508.5341546474374 1285.2644856770835) rotate(0 50.76923076923072 11.778846153846189)"><path d="M0 0 L101.54 0 L101.54 23.56 L0 23.56" stroke="none" stroke-width="0" fill="#ebfbee"></path><path d="M0 0 C31.92 0, 63.83 0, 101.54 0 M0 0 C30.06 0, 60.13 0, 101.54 0 M101.54 0 C101.54 5.99, 101.54 11.98, 101.54 23.56 M101.54 0 C101.54 5.41, 101.54 10.82, 101.54 23.56 M101.54 23.56 C75.69 23.56, 49.83 23.56, 0 23.56 M101.54 23.56 C63.06 23.56, 24.59 23.56, 0 23.56 M0 23.56 C0 16.91, 0 10.26, 0 0 M0 23.56 C0 17.17, 0 10.79, 0 0" stroke="#1e1e1e" stroke-width="2" fill="none"></path></g><g stroke-linecap="round" transform="translate(510 1390) rotate(0 50.76923076923072 11.778846153846189)"><path d="M0 0 L101.54 0 L101.54 23.56 L0 23.56" stroke="none" stroke-width="0" fill="#ebfbee"></path><path d="M0 0 C25.11 0, 50.22 0, 101.54 0 M0 0 C36.75 0, 73.5 0, 101.54 0 M101.54 0 C101.54 7.69, 101.54 15.37, 101.54 23.56 M101.54 0 C101.54 7.6, 101.54 15.21, 101.54 23.56 M101.54 23.56 C67.21 23.56, 32.88 23.56, 0 23.56 M101.54 23.56 C67.3 23.56, 33.07 23.56, 0 23.56 M0 23.56 C0 15.15, 0 6.74, 0 0 M0 23.56 C0 15.73, 0 7.91, 0 0" stroke="#1e1e1e" stroke-width="2" fill="none"></path></g><g stroke-linecap="round" transform="translate(808.5341546474374 1285.2644856770835) rotate(0 50.76923076923072 11.778846153846189)"><path d="M0 0 L101.54 0 L101.54 23.56 L0 23.56" stroke="none" stroke-width="0" fill="#ebfbee"></path><path d="M0 0 C34.57 0, 69.13 0, 101.54 0 M0 0 C36.03 0, 72.05 0, 101.54 0 M101.54 0 C101.54 7.93, 101.54 15.86, 101.54 23.56 M101.54 0 C101.54 8.5, 101.54 16.99, 101.54 23.56 M101.54 23.56 C78.63 23.56, 55.73 23.56, 0 23.56 M101.54 23.56 C66.01 23.56, 30.47 23.56, 0 23.56 M0 23.56 C0 15.22, 0 6.88, 0 0 M0 23.56 C0 18.03, 0 12.49, 0 0" stroke="#1e1e1e" stroke-width="2" fill="none"></path></g><g stroke-linecap="round" transform="translate(810 1390) rotate(0 50.76923076923072 11.778846153846189)"><path d="M0 0 L101.54 0 L101.54 23.56 L0 23.56" stroke="none" stroke-width="0" fill="#ebfbee"></path><path d="M0 0 C30.25 0, 60.5 0, 101.54 0 M0 0 C39.03 0, 78.06 0, 101.54 0 M101.54 0 C101.54 5.35, 101.54 10.69, 101.54 23.56 M101.54 0 C101.54 5.85, 101.54 11.71, 101.54 23.56 M101.54 23.56 C70.6 23.56, 39.66 23.56, 0 23.56 M101.54 23.56 C65.07 23.56, 28.6 23.56, 0 23.56 M0 23.56 C0 18.45, 0 13.33, 0 0 M0 23.56 C0 16.54, 0 9.53, 0 0" stroke="#1e1e1e" stroke-width="2" fill="none"></path></g><g stroke-linecap="round" transform="translate(150 1390) rotate(0 120 50)"><path d="M0 0 L240 0 L240 100 L0 100" stroke="none" stroke-width="0" fill="#ced4da"></path><path d="M0 0 C94.57 0, 189.14 0, 240 0 M240 0 C240 24.5, 240 49.01, 240 100 M240 100 C162.31 100, 84.62 100, 0 100 M0 100 C0 68.91, 0 37.83, 0 0" stroke="#aaa" stroke-width="2.5" fill="none" stroke-dasharray="1.5 8"></path></g><g stroke-linecap="round" transform="translate(499.3033854166679 1316.033716446314) rotate(0 60 26.983141776843013)"><path d="M0 0 L120 0 L120 53.97 L0 53.97" stroke="none" stroke-width="0" fill="#ced4da"></path><path d="M0 0 C27.9 0, 55.8 0, 120 0 M120 0 C120 16.53, 120 33.06, 120 53.97 M120 53.97 C72.11 53.97, 24.22 53.97, 0 53.97 M0 53.97 C0 38.75, 0 23.54, 0 0" stroke="#aaa" stroke-width="2.5" fill="none" stroke-dasharray="1.5 8"></path></g><g stroke-linecap="round" transform="translate(799.3033854166679 1316.033716446314) rotate(0 60 26.983141776843013)"><path d="M0 0 L120 0 L120 53.97 L0 53.97" stroke="none" stroke-width="0" fill="#ced4da"></path><path d="M0 0 C24.68 0, 49.37 0, 120 0 M120 0 C120 16.39, 120 32.79, 120 53.97 M120 53.97 C92.48 53.97, 64.96 53.97, 0 53.97 M0 53.97 C0 32.59, 0 11.21, 0 0" stroke="#aaa" stroke-width="2.5" fill="none" stroke-dasharray="1.5 8"></path></g><g stroke-linecap="round" transform="translate(159.30338541666788 1270.2644856770835) rotate(0 110 30.625)"><path d="M0 0 L220 0 L220 61.25 L0 61.25" stroke="none" stroke-width="0" fill="#ebfbee"></path><path d="M0 0 C55.94 0, 111.87 0, 220 0 M0 0 C50.5 0, 101 0, 220 0 M220 0 C220 15.59, 220 31.19, 220 61.25 M220 0 C220 23.21, 220 46.42, 220 61.25 M220 61.25 C157.93 61.25, 95.85 61.25, 0 61.25 M220 61.25 C160.38 61.25, 100.77 61.25, 0 61.25 M0 61.25 C0 46.98, 0 32.7, 0 0 M0 61.25 C0 48.53, 0 35.8, 0 0" stroke="#1e1e1e" stroke-width="2" fill="none"></path></g><g stroke-linecap="round" transform="translate(450 990) rotate(0 110 30.625)"><path d="M0 0 L220 0 L220 61.25 L0 61.25" stroke="none" stroke-width="0" fill="#ebfbee"></path><path d="M0 0 C71.78 0, 143.55 0, 220 0 M0 0 C71.02 0, 142.04 0, 220 0 M220 0 C220 20.71, 220 41.42, 220 61.25 M220 0 C220 20.65, 220 41.3, 220 61.25 M220 61.25 C141.48 61.25, 62.96 61.25, 0 61.25 M220 61.25 C146.92 61.25, 73.83 61.25, 0 61.25 M0 61.25 C0 46.21, 0 31.17, 0 0 M0 61.25 C0 48.93, 0 36.62, 0 0" stroke="#1e1e1e" stroke-width="2" fill="none"></path></g><g stroke-linecap="round" transform="translate(450 910) rotate(0 110 30.625)"><path d="M0 0 L220 0 L220 61.25 L0 61.25" stroke="none" stroke-width="0" fill="#ebfbee"></path><path d="M0 0 C65.83 0, 131.65 0, 220 0 M0 0 C49.65 0, 99.3 0, 220 0 M220 0 C220 17.41, 220 34.81, 220 61.25 M220 0 C220 22.13, 220 44.26, 220 61.25 M220 61.25 C163.33 61.25, 106.65 61.25, 0 61.25 M220 61.25 C141.11 61.25, 62.22 61.25, 0 61.25 M0 61.25 C0 40.03, 0 18.82, 0 0 M0 61.25 C0 45.31, 0 29.37, 0 0" stroke="#1e1e1e" stroke-width="2" fill="none"></path></g><g transform="translate(492.5600814819336 915.625) rotate(0 67.4399185180664 25)"><text x="67.4399185180664" y="17.52" font-family="Virgil, Segoe UI Emoji" font-size="20px" fill="#1e1e1e" text-anchor="middle" style="white-space: pre;" direction="ltr" dominant-baseline="alphabetic">fetch latest </text><text x="67.4399185180664" y="42.519999999999996" font-family="Virgil, Segoe UI Emoji" font-size="20px" fill="#1e1e1e" text-anchor="middle" style="white-space: pre;" direction="ltr" dominant-baseline="alphabetic">releases</text></g><g stroke-linecap="round" transform="translate(159.30338541666788 1525.2644856770835) rotate(0 110 30.625)"><path d="M0 0 L220 0 L220 61.25 L0 61.25" stroke="none" stroke-width="0" fill="#ebfbee"></path><path d="M0 0 C74.08 0, 148.16 0, 220 0 M0 0 C79.34 0, 158.68 0, 220 0 M220 0 C220 13.82, 220 27.63, 220 61.25 M220 0 C220 21.43, 220 42.87, 220 61.25 M220 61.25 C142.11 61.25, 64.22 61.25, 0 61.25 M220 61.25 C168.34 61.25, 116.67 61.25, 0 61.25 M0 61.25 C0 47.94, 0 34.63, 0 0 M0 61.25 C0 37.73, 0 14.22, 0 0" stroke="#1e1e1e" stroke-width="2" fill="none"></path></g><g transform="translate(465.77198791503906 810) rotate(0 101.66844177246094 35)"><text x="101.66844177246094" y="24.528" font-family="Virgil, Segoe UI Emoji" font-size="28px" fill="#1e1e1e" text-anchor="middle" style="white-space: pre;" direction="ltr" dominant-baseline="alphabetic">Cron Scheduled</text><text x="101.66844177246094" y="59.528" font-family="Virgil, Segoe UI Emoji" font-size="28px" fill="#1e1e1e" text-anchor="middle" style="white-space: pre;" direction="ltr" dominant-baseline="alphabetic">[GH Workflow]</text></g><g stroke-linecap="round"><g transform="translate(1117.7929257514616 1446.1099683341467) rotate(0 1.5104596652058717 39.428905636772924)"><path d="M0 0 C-10.1 4.88, -20.21 9.76, -31.21 15.07 M0 0 C-9.7 4.69, -19.41 9.37, -31.21 15.07 M-31.21 15.07 C-33.14 24.52, -35.06 33.96, -38.49 50.78 M-31.21 15.07 C-33.83 27.93, -36.45 40.8, -38.49 50.78 M-38.49 50.78 C-33.85 56.57, -29.21 62.36, -15.96 78.89 M-38.49 50.78 C-33.36 57.19, -28.22 63.59, -15.96 78.89 M-15.96 78.89 C-5.27 79.14, 5.43 79.39, 19.08 79.7 M-15.96 78.89 C-5.91 79.12, 4.13 79.36, 19.08 79.7 M19.08 79.7 C23.59 73.91, 28.1 68.12, 41.51 50.9 M19.08 79.7 C25.4 71.59, 31.71 63.48, 41.51 50.9 M41.51 50.9 C40.17 43.33, 38.83 35.76, 35.72 18.15 M41.51 50.9 C39.98 42.26, 38.45 33.61, 35.72 18.15 M35.72 18.15 C23.57 11.57, 11.43 4.99, 0.66 -0.85 M35.72 18.15 C27.79 13.85, 19.85 9.55, 0.66 -0.85" stroke="#aaa" stroke-width="4" fill="none"></path></g></g><mask></mask><g stroke-linecap="round"><g transform="translate(1118.66025125153 1445.4274057279931) rotate(0 0.354090954707317 39.71720208633542)" fill-rule="evenodd"><path d="M0 0 L-31.63 15.23 L-39.3 50.75 L-17.59 78.96 L17.59 79.43 L40.01 50.64 L32.22 15.11 L0 0" stroke="none" stroke-width="0" fill="#228be6" fill-rule="evenodd"></path><path d="M0 0 C-12.62 6.08, -25.25 12.15, -31.63 15.23 M0 0 C-8.92 4.29, -17.84 8.59, -31.63 15.23 M-31.63 15.23 C-33.58 24.26, -35.53 33.29, -39.3 50.75 M-31.63 15.23 C-33.87 25.61, -36.12 35.99, -39.3 50.75 M-39.3 50.75 C-31.54 60.84, -23.77 70.93, -17.59 78.96 M-39.3 50.75 C-32.57 59.5, -25.83 68.25, -17.59 78.96 M-17.59 78.96 C-7.2 79.1, 3.18 79.24, 17.59 79.43 M-17.59 78.96 C-9.25 79.07, -0.92 79.19, 17.59 79.43 M17.59 79.43 C24.2 70.95, 30.81 62.46, 40.01 50.64 M17.59 79.43 C22.9 72.61, 28.21 65.79, 40.01 50.64 M40.01 50.64 C37.35 38.5, 34.69 26.37, 32.22 15.11 M40.01 50.64 C37.12 37.44, 34.23 24.25, 32.22 15.11 M32.22 15.11 C19.53 9.16, 6.84 3.21, 0 0 M32.22 15.11 C21.49 10.08, 10.76 5.05, 0 0 M0 0 C0 0, 0 0, 0 0 M0 0 C0 0, 0 0, 0 0" stroke="#fff" stroke-width="2" fill="none"></path></g></g><mask></mask><g stroke-linecap="round"><g transform="translate(1118.9407267286178 1483.4523883821344) rotate(0 -0.14595686218899573 -13.314903645308505)"><path d="M0 0 C-0.05 -4.44, -0.24 -22.19, -0.29 -26.63 M0 0 C-0.05 -4.44, -0.24 -22.19, -0.29 -26.63" stroke="#fff" stroke-width="4" fill="none"></path></g></g><mask></mask><g stroke-linecap="round"><g transform="translate(1107.084211091863 1511.3082977906738) rotate(0 5.179524411010334 -11.010935567597244)"><path d="M0 0 C1.73 -3.67, 8.63 -18.35, 10.36 -22.02 M0 0 C1.73 -3.67, 8.63 -18.35, 10.36 -22.02" stroke="#fff" stroke-width="4" fill="none"></path></g></g><mask></mask><g stroke-linecap="round"><g transform="translate(1132.0745156863995 1511.4351521287167) rotate(0 -5.869244337682176 -10.998324507232155)"><path d="M0 0 C-1.96 -3.67, -9.78 -18.33, -11.74 -22 M0 0 C-1.96 -3.67, -9.78 -18.33, -11.74 -22" stroke="#fff" stroke-width="4" fill="none"></path></g></g><mask></mask><g stroke-linecap="round"><g transform="translate(1146.8782681891753 1491.7093025629797) rotate(0 -12.417828744849658 -2.329562065637674)"><path d="M0 0 C-4.14 -0.78, -20.7 -3.88, -24.84 -4.66 M0 0 C-4.14 -0.78, -20.7 -3.88, -24.84 -4.66" stroke="#fff" stroke-width="4" fill="none"></path></g></g><mask></mask><g stroke-linecap="round"><g transform="translate(1090.9737101603596 1491.6458753939582) rotate(0 12.47422286145229 -2.4297068141654563)"><path d="M0 0 C4.16 -0.81, 20.79 -4.05, 24.95 -4.86 M0 0 C4.16 -0.81, 20.79 -4.05, 24.95 -4.86" stroke="#fff" stroke-width="4" fill="none"></path></g></g><mask></mask><g stroke-linecap="round"><g transform="translate(1096.3650195272012 1468.3681043630072) rotate(0 9.586427334984592 7.67860826933952)"><path d="M0 0 C3.2 2.56, 15.98 12.8, 19.17 15.36 M0 0 C3.2 2.56, 15.98 12.8, 19.17 15.36" stroke="#fff" stroke-width="4" fill="none"></path></g></g><mask></mask><g stroke-linecap="round"><g transform="translate(1141.3348823635606 1467.9875413488776) rotate(0 -9.958639549351801 7.684727865923833)"><path d="M0 0 C-3.32 2.56, -16.6 12.81, -19.92 15.37 M0 0 C-3.32 2.56, -16.6 12.81, -19.92 15.37" stroke="#fff" stroke-width="4" fill="none"></path></g></g><mask></mask><g stroke-linecap="round" transform="translate(1098.9863906075252 1466.2350242274538) rotate(0 20.011271826334678 20.074698995356357)"><path d="M40.02 20.07 C40.02 21.24, 39.92 22.42, 39.72 23.56 C39.52 24.7, 39.21 25.85, 38.82 26.94 C38.42 28.03, 37.92 29.11, 37.34 30.11 C36.76 31.12, 36.09 32.09, 35.34 32.98 C34.6 33.87, 33.76 34.71, 32.87 35.45 C31.99 36.2, 31.02 36.88, 30.02 37.46 C29.01 38.04, 27.94 38.54, 26.86 38.94 C25.77 39.34, 24.63 39.64, 23.49 39.84 C22.35 40.05, 21.17 40.15, 20.01 40.15 C18.85 40.15, 17.68 40.05, 16.54 39.84 C15.4 39.64, 14.26 39.34, 13.17 38.94 C12.08 38.54, 11.01 38.04, 10.01 37.46 C9 36.88, 8.04 36.2, 7.15 35.45 C6.26 34.71, 5.43 33.87, 4.68 32.98 C3.94 32.09, 3.26 31.12, 2.68 30.11 C2.1 29.11, 1.6 28.03, 1.21 26.94 C0.81 25.85, 0.51 24.7, 0.3 23.56 C0.1 22.42, 0 21.24, 0 20.07 C0 18.91, 0.1 17.73, 0.3 16.59 C0.51 15.44, 0.81 14.3, 1.21 13.21 C1.6 12.12, 2.1 11.04, 2.68 10.04 C3.26 9.03, 3.94 8.06, 4.68 7.17 C5.43 6.28, 6.26 5.44, 7.15 4.7 C8.04 3.95, 9 3.27, 10.01 2.69 C11.01 2.11, 12.08 1.61, 13.17 1.21 C14.26 0.81, 15.4 0.51, 16.54 0.3 C17.68 0.1, 18.85 0, 20.01 0 C21.17 0, 22.35 0.1, 23.49 0.3 C24.63 0.51, 25.77 0.81, 26.86 1.21 C27.94 1.61, 29.01 2.11, 30.02 2.69 C31.02 3.27, 31.99 3.95, 32.87 4.7 C33.76 5.44, 34.6 6.28, 35.34 7.17 C36.09 8.06, 36.76 9.03, 37.34 10.04 C37.92 11.04, 38.42 12.12, 38.82 13.21 C39.21 14.3, 39.52 15.44, 39.72 16.59 C39.92 17.73, 39.97 19.49, 40.02 20.07 C40.07 20.66, 40.07 19.49, 40.02 20.07" stroke="#fff" stroke-width="4" fill="none"></path></g><g stroke-linecap="round" transform="translate(1113.2257900528884 1480.2841421657527) rotate(0 5.58159087390618 5.962153888036255)"><path d="M11.16 5.96 C11.16 6.31, 11.13 6.66, 11.08 7 C11.02 7.34, 10.94 7.68, 10.83 8 C10.72 8.33, 10.58 8.64, 10.42 8.94 C10.25 9.24, 10.07 9.53, 9.86 9.79 C9.65 10.06, 9.42 10.31, 9.17 10.53 C8.92 10.75, 8.65 10.95, 8.37 11.13 C8.09 11.3, 7.79 11.45, 7.49 11.56 C7.19 11.68, 6.87 11.77, 6.55 11.83 C6.23 11.89, 5.9 11.92, 5.58 11.92 C5.26 11.92, 4.93 11.89, 4.61 11.83 C4.29 11.77, 3.98 11.68, 3.67 11.56 C3.37 11.45, 3.07 11.3, 2.79 11.13 C2.51 10.95, 2.24 10.75, 1.99 10.53 C1.75 10.31, 1.51 10.06, 1.31 9.79 C1.1 9.53, 0.91 9.24, 0.75 8.94 C0.59 8.64, 0.45 8.33, 0.34 8 C0.23 7.68, 0.14 7.34, 0.08 7 C0.03 6.66, 0 6.31, 0 5.96 C0 5.62, 0.03 5.27, 0.08 4.93 C0.14 4.59, 0.23 4.25, 0.34 3.92 C0.45 3.6, 0.59 3.28, 0.75 2.98 C0.91 2.68, 1.1 2.39, 1.31 2.13 C1.51 1.87, 1.75 1.62, 1.99 1.39 C2.24 1.17, 2.51 0.97, 2.79 0.8 C3.07 0.63, 3.37 0.48, 3.67 0.36 C3.98 0.24, 4.29 0.15, 4.61 0.09 C4.93 0.03, 5.26 0, 5.58 0 C5.9 0, 6.23 0.03, 6.55 0.09 C6.87 0.15, 7.19 0.24, 7.49 0.36 C7.79 0.48, 8.09 0.63, 8.37 0.8 C8.65 0.97, 8.92 1.17, 9.17 1.39 C9.42 1.62, 9.65 1.87, 9.86 2.13 C10.07 2.39, 10.25 2.68, 10.42 2.98 C10.58 3.28, 10.72 3.6, 10.83 3.92 C10.94 4.25, 11.02 4.59, 11.08 4.93 C11.13 5.27, 11.15 5.79, 11.16 5.96 C11.18 6.13, 11.18 5.79, 11.16 5.96" stroke="#fff" stroke-width="4" fill="none"></path></g><g transform="translate(545.307322184246 45.264485677083485) rotate(0 273.9960632324219 22.5)"><text x="0" y="31.536" font-family="Virgil, Segoe UI Emoji" font-size="36px" fill="#1e1e1e" text-anchor="start" style="white-space: pre;" direction="ltr" dominant-baseline="alphabetic">Proposal-001: Trigger &amp; Deploy</text></g><g transform="translate(179.30338541666788 1290.2644856770835) rotate(0 88.1198959350586 12.5)"><text x="0" y="17.52" font-family="Virgil, Segoe UI Emoji" font-size="20px" fill="#1e1e1e" text-anchor="start" style="white-space: pre;" direction="ltr" dominant-baseline="alphabetic">Create Resources</text></g><g transform="translate(470 1010) rotate(0 91.55989074707031 12.5)"><text x="0" y="17.52" font-family="Virgil, Segoe UI Emoji" font-size="20px" fill="#1e1e1e" text-anchor="start" style="white-space: pre;" direction="ltr" dominant-baseline="alphabetic">Pipeline Dispatcher</text></g><g transform="translate(179.30338541666788 1545.2644856770835) rotate(0 86.60990142822266 12.5)"><text x="0" y="17.52" font-family="Virgil, Segoe UI Emoji" font-size="20px" fill="#1e1e1e" text-anchor="start" style="white-space: pre;" direction="ltr" dominant-baseline="alphabetic">Delete Resources</text></g><g transform="translate(1235.2659159368304 745.2644856770835) rotate(0 116.29986572265625 100)"><text x="0" y="17.52" font-family="Virgil, Segoe UI Emoji" font-size="20px" fill="#1e1e1e" text-anchor="start" style="white-space: pre;" direction="ltr" dominant-baseline="alphabetic">* Each Project Pipeline.</text><text x="0" y="42.519999999999996" font-family="Virgil, Segoe UI Emoji" font-size="20px" fill="#1e1e1e" text-anchor="start" style="white-space: pre;" direction="ltr" dominant-baseline="alphabetic">Can be manually</text><text x="0" y="67.52" font-family="Virgil, Segoe UI Emoji" font-size="20px" fill="#1e1e1e" text-anchor="start" style="white-space: pre;" direction="ltr" dominant-baseline="alphabetic">dispatched</text><text x="0" y="92.52" font-family="Virgil, Segoe UI Emoji" font-size="20px" fill="#1e1e1e" text-anchor="start" style="white-space: pre;" direction="ltr" dominant-baseline="alphabetic"></text><text x="0" y="117.52" font-family="Virgil, Segoe UI Emoji" font-size="20px" fill="#1e1e1e" text-anchor="start" style="white-space: pre;" direction="ltr" dominant-baseline="alphabetic">* Each Project pipeline</text><text x="0" y="142.52" font-family="Virgil, Segoe UI Emoji" font-size="20px" fill="#1e1e1e" text-anchor="start" style="white-space: pre;" direction="ltr" dominant-baseline="alphabetic">Resp: Create and </text><text x="0" y="167.52" font-family="Virgil, Segoe UI Emoji" font-size="20px" fill="#1e1e1e" text-anchor="start" style="white-space: pre;" direction="ltr" dominant-baseline="alphabetic">Destroy of resources</text><text x="0" y="192.52" font-family="Virgil, Segoe UI Emoji" font-size="20px" fill="#1e1e1e" text-anchor="start" style="white-space: pre;" direction="ltr" dominant-baseline="alphabetic"></text></g><g transform="translate(1223.365922040346 945.2644856770835) rotate(0 128.19985961914062 37.5)"><text x="0" y="17.52" font-family="Virgil, Segoe UI Emoji" font-size="20px" fill="#1e1e1e" text-anchor="start" style="white-space: pre;" direction="ltr" dominant-baseline="alphabetic">* If New Release</text><text x="0" y="42.519999999999996" font-family="Virgil, Segoe UI Emoji" font-size="20px" fill="#1e1e1e" text-anchor="start" style="white-space: pre;" direction="ltr" dominant-baseline="alphabetic">any(projects[...]), Trigger </text><text x="0" y="67.52" font-family="Virgil, Segoe UI Emoji" font-size="20px" fill="#1e1e1e" text-anchor="start" style="white-space: pre;" direction="ltr" dominant-baseline="alphabetic">individual Pipeline</text></g><g transform="translate(228.28776041666788 1185.2644856770835) rotate(0 35.84014892578125 17.5)"><text x="35.84014892578125" y="24.528" font-family="Virgil, Segoe UI Emoji" font-size="28px" fill="#1e1e1e" text-anchor="middle" style="white-space: pre;" direction="ltr" dominant-baseline="alphabetic">Falco</text></g><g transform="translate(200.9133783976249 1425.2644856770835) rotate(0 63.769935607910156 12.5)"><text x="63.769935607910156" y="17.52" font-family="Virgil, Segoe UI Emoji" font-size="20px" fill="#1e1e1e" text-anchor="middle" style="white-space: pre;" direction="ltr" dominant-baseline="alphabetic">Bechmark job</text></g><g transform="translate(339.3033854166679 1405.2644856770835) rotate(0 5.159996032714844 12.5)"><text x="5.159996032714844" y="17.52" font-family="Virgil, Segoe UI Emoji" font-size="20px" fill="#e03131" text-anchor="middle" style="white-space: pre;" direction="ltr" dominant-baseline="alphabetic">*</text></g><g transform="translate(1199.3033854166679 1205.2644856770835) rotate(0 5.159996032714844 12.5)"><text x="5.159996032714844" y="17.52" font-family="Virgil, Segoe UI Emoji" font-size="20px" fill="#e03131" text-anchor="middle" style="white-space: pre;" direction="ltr" dominant-baseline="alphabetic">*</text></g><g transform="translate(1239.3033854166679 1285.2644856770835) rotate(0 10.319992065429688 12.5)"><text x="10.319992065429688" y="17.52" font-family="Virgil, Segoe UI Emoji" font-size="20px" fill="#e03131" text-anchor="middle" style="white-space: pre;" direction="ltr" dominant-baseline="alphabetic">**</text></g><g transform="translate(299.3033854166679 1185.2644856770835) rotate(0 10.319992065429688 12.5)"><text x="10.319992065429688" y="17.52" font-family="Virgil, Segoe UI Emoji" font-size="20px" fill="#e03131" text-anchor="middle" style="white-space: pre;" direction="ltr" dominant-baseline="alphabetic">**</text></g><g transform="translate(439.3033854166679 305.2644856770835) rotate(0 10.319992065429688 12.5)"><text x="10.319992065429688" y="17.52" font-family="Virgil, Segoe UI Emoji" font-size="20px" fill="#e03131" text-anchor="middle" style="white-space: pre;" direction="ltr" dominant-baseline="alphabetic">**</text></g><g transform="translate(1219.3033854166679 1205.2644856770835) rotate(0 165.51980590820312 12.5)"><text x="165.51980590820312" y="17.52" font-family="Virgil, Segoe UI Emoji" font-size="20px" fill="#1e1e1e" text-anchor="middle" style="white-space: pre;" direction="ltr" dominant-baseline="alphabetic">Will be decided in other Proposals</text></g><g transform="translate(1268.0233256022148 1285.2644856770835) rotate(0 116.79986572265625 12.5)"><text x="116.79986572265625" y="17.52" font-family="Virgil, Segoe UI Emoji" font-size="20px" fill="#1e1e1e" text-anchor="middle" style="white-space: pre;" direction="ltr" dominant-baseline="alphabetic">First supported Project</text></g><g mask="url(#mask-pQOHccf3KQjXo-Vw7sYVH)" stroke-linecap="round"><g transform="translate(390 1470) rotate(0 360 60)"><path d="M0 0 C37.43 0, 74.86 0, 100 0 M0 0 C25.68 0, 51.36 0, 100 0 M100 0 C100 31.61, 100 63.22, 100 120 M100 0 C100 40.59, 100 81.19, 100 120 M100 120 C297.12 120, 494.25 120, 720 120 M100 120 C331.2 120, 562.4 120, 720 120" stroke="#aaa" stroke-width="2" fill="none"></path></g><g transform="translate(390 1470) rotate(0 360 60)"><path d="M720 120 L706.41 126.34 L706.41 113.66 L720 120" stroke="none" stroke-width="0" fill="#aaa" fill-rule="evenodd"></path><path d="M720 120 C714.91 122.37, 709.82 124.75, 706.41 126.34 M720 120 C716.51 121.63, 713.02 123.26, 706.41 126.34 M706.41 126.34 C706.41 123, 706.41 119.66, 706.41 113.66 M706.41 126.34 C706.41 122.05, 706.41 117.76, 706.41 113.66 M706.41 113.66 C710.73 115.68, 715.05 117.69, 720 120 M706.41 113.66 C711.47 116.02, 716.54 118.39, 720 120 M720 120 C720 120, 720 120, 720 120 M720 120 C720 120, 720 120, 720 120" stroke="#aaa" stroke-width="2" fill="none"></path></g></g><mask id="mask-pQOHccf3KQjXo-Vw7sYVH"><rect x="0" y="0" fill="#fff" width="1210" height="1690"></rect><rect x="484.84000396728516" y="1517.5" fill="#000" width="10.319992065429688" height="25" opacity="1"></rect></mask><g transform="translate(484.84000396728516 1517.5) rotate(0 265.15999603271484 12.5)"><text x="5.159996032714844" y="17.52" font-family="Virgil, Segoe UI Emoji" font-size="20px" fill="#e03131" text-anchor="middle" style="white-space: pre;" direction="ltr" dominant-baseline="alphabetic">*</text></g><g mask="url(#mask-xRz3aF2zMziqIeK_JO9un)" stroke-linecap="round"><g transform="translate(630 1350) rotate(0 240 110)"><path d="M0 0 C20.43 0, 40.86 0, 60 0 M0 0 C21.27 0, 42.53 0, 60 0 M60 0 C60 71.07, 60 142.14, 60 220 M60 0 C60 67.85, 60 135.71, 60 220 M60 220 C149.86 220, 239.72 220, 480 220 M60 220 C199.07 220, 338.15 220, 480 220" stroke="#aaa" stroke-width="2" fill="none"></path></g><g transform="translate(630 1350) rotate(0 240 110)"><path d="M480 220 L466.41 226.34 L466.41 213.66 L480 220" stroke="none" stroke-width="0" fill="#aaa" fill-rule="evenodd"></path><path d="M480 220 C475.37 222.16, 470.74 224.32, 466.41 226.34 M480 220 C475.18 222.25, 470.36 224.49, 466.41 226.34 M466.41 226.34 C466.41 222.24, 466.41 218.15, 466.41 213.66 M466.41 226.34 C466.41 222.43, 466.41 218.52, 466.41 213.66 M466.41 213.66 C469.31 215.02, 472.22 216.37, 480 220 M466.41 213.66 C470.91 215.76, 475.41 217.86, 480 220 M480 220 C480 220, 480 220, 480 220 M480 220 C480 220, 480 220, 480 220" stroke="#aaa" stroke-width="2" fill="none"></path></g></g><mask id="mask-xRz3aF2zMziqIeK_JO9un"><rect x="0" y="0" fill="#fff" width="1210" height="1670"></rect><rect x="684.8400039672852" y="1447.5" fill="#000" width="10.319992065429688" height="25" opacity="1"></rect></mask><g transform="translate(684.8400039672852 1447.5) rotate(0 185.15999603271484 12.5)"><text x="5.159996032714844" y="17.52" font-family="Virgil, Segoe UI Emoji" font-size="20px" fill="#e03131" text-anchor="middle" style="white-space: pre;" direction="ltr" dominant-baseline="alphabetic">*</text></g><g mask="url(#mask-a7UVci43-BRmw7rUhroYr)" stroke-linecap="round"><g transform="translate(930 1350) rotate(0 90 100)"><path d="M0 0 C12.06 0, 24.13 0, 60 0 M0 0 C16.9 0, 33.79 0, 60 0 M60 0 C60 46.22, 60 92.45, 60 200 M60 0 C60 52.8, 60 105.6, 60 200 M60 200 C101.58 200, 143.16 200, 180 200 M60 200 C87.15 200, 114.31 200, 180 200" stroke="#aaa" stroke-width="2" fill="none"></path></g><g transform="translate(930 1350) rotate(0 90 100)"><path d="M180 200 L166.41 206.34 L166.41 193.66 L180 200" stroke="none" stroke-width="0" fill="#aaa" fill-rule="evenodd"></path><path d="M180 200 C177.27 201.27, 174.53 202.55, 166.41 206.34 M180 200 C176.17 201.79, 172.34 203.57, 166.41 206.34 M166.41 206.34 C166.41 203.41, 166.41 200.48, 166.41 193.66 M166.41 206.34 C166.41 202.99, 166.41 199.64, 166.41 193.66 M166.41 193.66 C171.12 195.86, 175.83 198.05, 180 200 M166.41 193.66 C169.48 195.1, 172.56 196.53, 180 200 M180 200 C180 200, 180 200, 180 200 M180 200 C180 200, 180 200, 180 200" stroke="#aaa" stroke-width="2" fill="none"></path></g></g><mask id="mask-a7UVci43-BRmw7rUhroYr"><rect x="0" y="0" fill="#fff" width="1210" height="1650"></rect><rect x="984.8400039672852" y="1437.5" fill="#000" width="10.319992065429688" height="25" opacity="1"></rect></mask><g transform="translate(984.8400039672852 1437.5) rotate(0 35.159996032714844 12.5)"><text x="5.159996032714844" y="17.52" font-family="Virgil, Segoe UI Emoji" font-size="20px" fill="#e03131" text-anchor="middle" style="white-space: pre;" direction="ltr" dominant-baseline="alphabetic">*</text></g><g transform="translate(219.30338541666788 1225.2644856770835) rotate(0 54.58411407470703 10)"><text x="54.58411407470703" y="14.016" font-family="Virgil, Segoe UI Emoji" font-size="16px" fill="#1e1e1e" text-anchor="middle" style="white-space: pre;" direction="ltr" dominant-baseline="alphabetic">[GH workflow]</text></g><g transform="translate(499.3033854166679 1245.2644856770835) rotate(0 54.58411407470703 10)"><text x="54.58411407470703" y="14.016" font-family="Virgil, Segoe UI Emoji" font-size="16px" fill="#1e1e1e" text-anchor="middle" style="white-space: pre;" direction="ltr" dominant-baseline="alphabetic">[GH workflow]</text></g><g transform="translate(799.3033854166679 1245.2644856770835) rotate(0 54.58411407470703 10)"><text x="54.58411407470703" y="14.016" font-family="Virgil, Segoe UI Emoji" font-size="16px" fill="#1e1e1e" text-anchor="middle" style="white-space: pre;" direction="ltr" dominant-baseline="alphabetic">[GH workflow]</text></g><g transform="translate(499.3033854166679 1185.2644856770835) rotate(0 51.46421813964844 17.5)"><text x="51.46421813964844" y="24.528" font-family="Virgil, Segoe UI Emoji" font-size="28px" fill="#1e1e1e" text-anchor="middle" style="white-space: pre;" direction="ltr" dominant-baseline="alphabetic">Proj[2]</text></g><g transform="translate(799.3033854166679 1185.2644856770835) rotate(0 50.51221466064453 17.5)"><text x="50.51221466064453" y="24.528" font-family="Virgil, Segoe UI Emoji" font-size="28px" fill="#1e1e1e" text-anchor="middle" style="white-space: pre;" direction="ltr" dominant-baseline="alphabetic">Proj[N]</text></g><g transform="translate(1179.3033854166679 705.2644856770835) rotate(0 32.34014129638672 17.5)"><text x="32.34014129638672" y="24.528" font-family="Virgil, Segoe UI Emoji" font-size="28px" fill="#1e1e1e" text-anchor="middle" style="white-space: pre;" direction="ltr" dominant-baseline="alphabetic">Note</text></g><g transform="translate(550 1290) rotate(0 6.5760040283203125 10)"><text x="0" y="14.016" font-family="Virgil, Segoe UI Emoji" font-size="16px" fill="#1e1e1e" text-anchor="start" style="white-space: pre;" direction="ltr" dominant-baseline="alphabetic">...</text></g><g transform="translate(550 1330) rotate(0 6.5760040283203125 10)"><text x="0" y="14.016" font-family="Virgil, Segoe UI Emoji" font-size="16px" fill="#1e1e1e" text-anchor="start" style="white-space: pre;" direction="ltr" dominant-baseline="alphabetic">...</text></g><g transform="translate(550 1390) rotate(0 6.5760040283203125 10)"><text x="0" y="14.016" font-family="Virgil, Segoe UI Emoji" font-size="16px" fill="#1e1e1e" text-anchor="start" style="white-space: pre;" direction="ltr" dominant-baseline="alphabetic">...</text></g><g transform="translate(850 1290) rotate(0 6.5760040283203125 10)"><text x="0" y="14.016" font-family="Virgil, Segoe UI Emoji" font-size="16px" fill="#1e1e1e" text-anchor="start" style="white-space: pre;" direction="ltr" dominant-baseline="alphabetic">...</text></g><g transform="translate(850 1330) rotate(0 6.5760040283203125 10)"><text x="0" y="14.016" font-family="Virgil, Segoe UI Emoji" font-size="16px" fill="#1e1e1e" text-anchor="start" style="white-space: pre;" direction="ltr" dominant-baseline="alphabetic">...</text></g><g transform="translate(850 1390) rotate(0 6.5760040283203125 10)"><text x="0" y="14.016" font-family="Virgil, Segoe UI Emoji" font-size="16px" fill="#1e1e1e" text-anchor="start" style="white-space: pre;" direction="ltr" dominant-baseline="alphabetic">...</text></g><g stroke-linecap="round"><g transform="translate(550 1050) rotate(0 -150 60)"><path d="M0 0 C0 12.84, 0 25.67, 0 60 M0 0 C0 19.87, 0 39.74, 0 60 M0 60 C-87.79 60, -175.59 60, -300 60 M0 60 C-115.04 60, -230.07 60, -300 60 M-300 60 C-300 79.45, -300 98.91, -300 120 M-300 60 C-300 80.72, -300 101.44, -300 120" stroke="#1e1e1e" stroke-width="2" fill="none"></path></g><g transform="translate(550 1050) rotate(0 -150 60)"><path d="M-300 120 L-306.34 106.41 L-293.66 106.41 L-300 120" stroke="none" stroke-width="0" fill="#1e1e1e" fill-rule="evenodd"></path><path d="M-300 120 C-301.36 117.09, -302.71 114.18, -306.34 106.41 M-300 120 C-302.1 115.5, -304.2 111, -306.34 106.41 M-306.34 106.41 C-302.63 106.41, -298.92 106.41, -293.66 106.41 M-306.34 106.41 C-301.48 106.41, -296.62 106.41, -293.66 106.41 M-293.66 106.41 C-295.72 110.81, -297.77 115.22, -300 120 M-293.66 106.41 C-295.85 111.1, -298.04 115.8, -300 120 M-300 120 C-300 120, -300 120, -300 120 M-300 120 C-300 120, -300 120, -300 120" stroke="#1e1e1e" stroke-width="2" fill="none"></path></g></g><mask></mask><g stroke-linecap="round"><g transform="translate(550 1050) rotate(0 0 60)"><path d="M0 0 C0 41.58, 0 83.16, 0 120 M0 0 C0 27.15, 0 54.31, 0 120" stroke="#1e1e1e" stroke-width="2" fill="none"></path></g><g transform="translate(550 1050) rotate(0 0 60)"><path d="M0 120 L-6.34 106.41 L6.34 106.41 L0 120" stroke="none" stroke-width="0" fill="#1e1e1e" fill-rule="evenodd"></path><path d="M0 120 C-2.2 115.29, -4.39 110.58, -6.34 106.41 M0 120 C-1.43 116.92, -2.87 113.85, -6.34 106.41 M-6.34 106.41 C-2.18 106.41, 1.97 106.41, 6.34 106.41 M-6.34 106.41 C-3.35 106.41, -0.35 106.41, 6.34 106.41 M6.34 106.41 C4.44 110.49, 2.53 114.57, 0 120 M6.34 106.41 C4.62 110.09, 2.91 113.77, 0 120 M0 120 C0 120, 0 120, 0 120 M0 120 C0 120, 0 120, 0 120" stroke="#1e1e1e" stroke-width="2" fill="none"></path></g></g><mask></mask><g stroke-linecap="round"><g transform="translate(550 1050) rotate(0 150 60)"><path d="M0 0 C0 23.63, 0 47.27, 0 60 M0 0 C0 19.98, 0 39.96, 0 60 M0 60 C89.79 60, 179.57 60, 300 60 M0 60 C84.21 60, 168.41 60, 300 60 M300 60 C300 72.56, 300 85.11, 300 120 M300 60 C300 82.41, 300 104.82, 300 120" stroke="#1e1e1e" stroke-width="2" fill="none"></path></g><g transform="translate(550 1050) rotate(0 150 60)"><path d="M300 120 L293.66 106.41 L306.34 106.41 L300 120" stroke="none" stroke-width="0" fill="#1e1e1e" fill-rule="evenodd"></path><path d="M300 120 C297.5 114.65, 295.01 109.29, 293.66 106.41 M300 120 C297.89 115.47, 295.78 110.95, 293.66 106.41 M293.66 106.41 C297.46 106.41, 301.25 106.41, 306.34 106.41 M293.66 106.41 C297.22 106.41, 300.78 106.41, 306.34 106.41 M306.34 106.41 C305.01 109.25, 303.69 112.09, 300 120 M306.34 106.41 C303.97 111.48, 301.6 116.56, 300 120 M300 120 C300 120, 300 120, 300 120 M300 120 C300 120, 300 120, 300 120" stroke="#1e1e1e" stroke-width="2" fill="none"></path></g></g><mask></mask><g mask="url(#mask-Iaja2KyWxPP-DXNPkxBwe)" stroke-linecap="round"><g transform="translate(450 950) rotate(0 -140 -310)"><path d="M0 0 C-75.09 0, -150.19 0, -280 0 M0 0 C-94.65 0, -189.3 0, -280 0 M-280 0 C-280 -170.88, -280 -341.77, -280 -620 M-280 0 C-280 -239.99, -280 -479.98, -280 -620 M-280 -620 C-265.39 -620, -250.78 -620, -220 -620 M-280 -620 C-260.29 -620, -240.58 -620, -220 -620" stroke="#1971c2" stroke-width="2" fill="none"></path></g><g transform="translate(450 950) rotate(0 -140 -310)"><path d="M-220 -620 L-233.59 -613.66 L-233.59 -626.34 L-220 -620" stroke="none" stroke-width="0" fill="#1971c2" fill-rule="evenodd"></path><path d="M-220 -620 C-223.65 -618.3, -227.29 -616.6, -233.59 -613.66 M-220 -620 C-224.6 -617.86, -229.19 -615.71, -233.59 -613.66 M-233.59 -613.66 C-233.59 -617.16, -233.59 -620.65, -233.59 -626.34 M-233.59 -613.66 C-233.59 -618.57, -233.59 -623.48, -233.59 -626.34 M-233.59 -626.34 C-230.28 -624.8, -226.97 -623.25, -220 -620 M-233.59 -626.34 C-229.13 -624.26, -224.66 -622.17, -220 -620 M-220 -620 C-220 -620, -220 -620, -220 -620 M-220 -620 C-220 -620, -220 -620, -220 -620" stroke="#1971c2" stroke-width="2" fill="none"></path></g></g><mask id="mask-Iaja2KyWxPP-DXNPkxBwe"><rect x="0" y="0" fill="#fff" width="830" height="1670"></rect><rect x="114.38005828857422" y="615" fill="#000" width="111.23988342285156" height="50" opacity="1"></rect></mask><g transform="translate(114.38005828857422 615) rotate(0 195.61994171142578 25)"><text x="55.61994171142578" y="17.52" font-family="Virgil, Segoe UI Emoji" font-size="20px" fill="#1971c2" text-anchor="middle" style="white-space: pre;" direction="ltr" dominant-baseline="alphabetic">GitHub API</text><text x="55.61994171142578" y="42.519999999999996" font-family="Virgil, Segoe UI Emoji" font-size="20px" fill="#1971c2" text-anchor="middle" style="white-space: pre;" direction="ltr" dominant-baseline="alphabetic">Calls</text></g></svg>